<?xml version="1.0" encoding="UTF-8" standalone="no"?>
<svg
   xmlns:dc="http://purl.org/dc/elements/1.1/"
   xmlns:cc="http://creativecommons.org/ns#"
   xmlns:rdf="http://www.w3.org/1999/02/22-rdf-syntax-ns#"
   xmlns:svg="http://www.w3.org/2000/svg"
   xmlns="http://www.w3.org/2000/svg"
   xmlns:sodipodi="http://sodipodi.sourceforge.net/DTD/sodipodi-0.dtd"
   xmlns:inkscape="http://www.inkscape.org/namespaces/inkscape"
   version="1.1"
   viewBox="0 0 1289.7638 300"
   stroke-miterlimit="10"
   id="svg4099"
   sodipodi:docname="AV1 T-STD Model.svg"
   width="1289.7638"
   height="300"
   style="fill:none;stroke:none;stroke-linecap:square;stroke-miterlimit:10"
   inkscape:version="0.92.1 r15371">
  <metadata
     id="metadata4105">
    <rdf:RDF>
      <cc:Work
         rdf:about="">
        <dc:format>image/svg+xml</dc:format>
        <dc:type
           rdf:resource="http://purl.org/dc/dcmitype/StillImage" />
        <dc:title></dc:title>
      </cc:Work>
    </rdf:RDF>
  </metadata>
  <defs
     id="defs4103" />
  <sodipodi:namedview
     pagecolor="#ffffff"
     bordercolor="#666666"
     borderopacity="1"
     objecttolerance="10"
     gridtolerance="10"
     guidetolerance="10"
     inkscape:pageopacity="0"
     inkscape:pageshadow="2"
     inkscape:window-width="1536"
     inkscape:window-height="801"
     id="namedview4101"
     showgrid="false"
     inkscape:zoom="0.57044166"
     inkscape:cx="944.8819"
     inkscape:cy="300"
     inkscape:window-x="-8"
     inkscape:window-y="-8"
     inkscape:window-maximized="1"
     inkscape:current-layer="g4097" />
  <clipPath
     id="p.0">
    <path
       d="M 0,0 H 1889.7638 V 600 H 0 Z"
       id="path3938"
       inkscape:connector-curvature="0"
       style="clip-rule:nonzero" />
  </clipPath>
  <g
     clip-path="url(#p.0)"
     id="g4097"
     transform="translate(0,-300)">
    <path
       d="M 0,0 H 1889.7638 V 600 H 0 Z"
       id="path3941"
       inkscape:connector-curvature="0"
       style="fill:#000000;fill-opacity:0;fill-rule:evenodd" />
    <path
       d="m 335.31655,400.38415 h 117.19684 v 66.99213 H 335.31655 Z"
       id="path3943"
       inkscape:connector-curvature="0"
       style="fill:#000000;fill-opacity:0;fill-rule:evenodd" />
    <path
       d="m 335.31655,400.38415 h 117.19684 v 66.99213 H 335.31655 Z"
       id="path3945"
       inkscape:connector-curvature="0"
       style="fill-rule:evenodd;stroke:#000000;stroke-width:1;stroke-linecap:butt;stroke-linejoin:round" />
    <path
       d="m 383.38035,440.60022 v -11.78125 h -4.40625 v -1.57813 h 10.57813 v 1.57813 h -4.40625 v 11.78125 z m 7.91162,0 v -13.35938 h 5.01563 q 1.53125,0 2.45312,0.40625 0.92188,0.40625 1.4375,1.25 0.53125,0.84375 0.53125,1.76563 0,0.85937 -0.46875,1.625 -0.45312,0.75 -1.39062,1.20312 1.20312,0.35938 1.85937,1.21875 0.65625,0.85938 0.65625,2.01563 0,0.9375 -0.40625,1.75 -0.39062,0.79687 -0.98437,1.23437 -0.57813,0.4375 -1.45313,0.67188 -0.875,0.21875 -2.15625,0.21875 z m 1.78125,-7.75 h 2.875 q 1.1875,0 1.6875,-0.14063 0.67188,-0.20312 1.01563,-0.67187 0.34375,-0.46875 0.34375,-1.17188 0,-0.65625 -0.32813,-1.15625 -0.3125,-0.51562 -0.90625,-0.70312 -0.59375,-0.1875 -2.03125,-0.1875 h -2.65625 z m 0,6.17187 h 3.3125 q 0.85938,0 1.20313,-0.0625 0.60937,-0.10937 1.01562,-0.35937 0.42188,-0.26563 0.6875,-0.75 0.26563,-0.48438 0.26563,-1.125 0,-0.75 -0.39063,-1.29688 -0.375,-0.54687 -1.0625,-0.76562 -0.67187,-0.23438 -1.95312,-0.23438 h -3.07813 z"
       id="path3947"
       inkscape:connector-curvature="0"
       style="fill:#000000;fill-rule:nonzero" />
    <path
       d="m 403.18875,447.60022 v -6.45313 h 0.98438 v 0.92188 q 0.71875,-1.0625 2.0625,-1.0625 0.57812,0 1.0625,0.21875 0.5,0.20312 0.73437,0.54687 0.25,0.32813 0.34375,0.79688 0.0625,0.3125 0.0625,1.0625 v 3.96875 H 407.345 v -3.92188 q 0,-0.67187 -0.125,-1 -0.125,-0.32812 -0.45312,-0.51562 -0.32813,-0.20313 -0.76563,-0.20313 -0.70312,0 -1.21875,0.4375 -0.5,0.4375 -0.5,1.6875 v 3.51563 z"
       id="path3949"
       inkscape:connector-curvature="0"
       style="fill:#000000;fill-rule:nonzero" />
    <path
       d="m 534.30605,400.38415 h 117.19684 v 66.99213 H 534.30605 Z"
       id="path3951"
       inkscape:connector-curvature="0"
       style="fill:#000000;fill-opacity:0;fill-rule:evenodd" />
    <path
       d="m 534.30605,400.38415 h 117.19684 v 66.99213 H 534.30605 Z"
       id="path3953"
       inkscape:connector-curvature="0"
       style="fill-rule:evenodd;stroke:#000000;stroke-width:1;stroke-linecap:butt;stroke-linejoin:round" />
    <path
       d="m 576.84435,440.60022 v -13.35938 h 2.65625 l 3.15625,9.45313 q 0.4375,1.32812 0.64062,1.98437 0.23438,-0.73437 0.70313,-2.14062 l 3.20312,-9.29688 h 2.375 v 13.35938 h -1.70312 v -11.17188 l -3.875,11.17188 h -1.59375 l -3.85938,-11.375 v 11.375 z m 15.50958,0 v -13.35938 h 5.01563 q 1.53125,0 2.45312,0.40625 0.92188,0.40625 1.4375,1.25 0.53125,0.84375 0.53125,1.76563 0,0.85937 -0.46875,1.625 -0.45312,0.75 -1.39062,1.20312 1.20312,0.35938 1.85937,1.21875 0.65625,0.85938 0.65625,2.01563 0,0.9375 -0.40625,1.75 -0.39062,0.79687 -0.98437,1.23437 -0.57813,0.4375 -1.45313,0.67188 -0.875,0.21875 -2.15625,0.21875 z m 1.78125,-7.75 h 2.875 q 1.1875,0 1.6875,-0.14063 0.67188,-0.20312 1.01563,-0.67187 0.34375,-0.46875 0.34375,-1.17188 0,-0.65625 -0.32813,-1.15625 -0.3125,-0.51562 -0.90625,-0.70312 -0.59375,-0.1875 -2.03125,-0.1875 h -2.65625 z m 0,6.17187 h 3.3125 q 0.85938,0 1.20313,-0.0625 0.60937,-0.10937 1.01562,-0.35937 0.42188,-0.26563 0.6875,-0.75 0.26563,-0.48438 0.26563,-1.125 0,-0.75 -0.39063,-1.29688 -0.375,-0.54687 -1.0625,-0.76562 -0.67187,-0.23438 -1.95312,-0.23438 h -3.07813 z"
       id="path3955"
       inkscape:connector-curvature="0"
       style="fill:#000000;fill-rule:nonzero" />
    <path
       d="m 604.25061,447.60022 v -6.45313 h 0.98437 v 0.92188 q 0.71875,-1.0625 2.0625,-1.0625 0.57813,0 1.0625,0.21875 0.5,0.20312 0.73438,0.54687 0.25,0.32813 0.34375,0.79688 0.0625,0.3125 0.0625,1.0625 v 3.96875 h -1.09375 v -3.92188 q 0,-0.67187 -0.125,-1 -0.125,-0.32812 -0.45313,-0.51562 -0.32812,-0.20313 -0.76562,-0.20313 -0.70313,0 -1.21875,0.4375 -0.5,0.4375 -0.5,1.6875 v 3.51563 z"
       id="path3957"
       inkscape:connector-curvature="0"
       style="fill:#000000;fill-rule:nonzero" />
    <path
       d="m 733.29555,400.38415 h 117.1969 v 66.99213 h -117.1969 z"
       id="path3959"
       inkscape:connector-curvature="0"
       style="fill:#000000;fill-opacity:0;fill-rule:evenodd" />
    <path
       d="m 733.29555,400.38415 h 117.1969 v 66.99213 h -117.1969 z"
       id="path3961"
       inkscape:connector-curvature="0"
       style="fill-rule:evenodd;stroke:#000000;stroke-width:1;stroke-linecap:butt;stroke-linejoin:round" />
    <path
       d="m 777.46055,440.60022 v -13.35938 h 9.6563 v 1.57813 h -7.875 v 4.09375 h 7.375 v 1.5625 h -7.375 v 4.54687 h 8.1875 v 1.57813 z m 12.3342,0 v -13.35938 h 5.0157 q 1.5312,0 2.4531,0.40625 0.9219,0.40625 1.4375,1.25 0.5312,0.84375 0.5312,1.76563 0,0.85937 -0.4687,1.625 -0.4531,0.75 -1.3906,1.20312 1.2031,0.35938 1.8593,1.21875 0.6563,0.85938 0.6563,2.01563 0,0.9375 -0.4063,1.75 -0.3906,0.79687 -0.9843,1.23437 -0.5782,0.4375 -1.4532,0.67188 -0.875,0.21875 -2.1562,0.21875 z m 1.7813,-7.75 h 2.875 q 1.1875,0 1.6875,-0.14063 0.6719,-0.20312 1.0156,-0.67187 0.3438,-0.46875 0.3438,-1.17188 0,-0.65625 -0.3282,-1.15625 -0.3125,-0.51562 -0.9062,-0.70312 -0.5938,-0.1875 -2.0313,-0.1875 h -2.6562 z m 0,6.17187 h 3.3125 q 0.8594,0 1.2031,-0.0625 0.6094,-0.10937 1.0156,-0.35937 0.4219,-0.26563 0.6875,-0.75 0.2657,-0.48438 0.2657,-1.125 0,-0.75 -0.3907,-1.29688 -0.375,-0.54687 -1.0625,-0.76562 -0.6718,-0.23438 -1.9531,-0.23438 h -3.0781 z"
       id="path3963"
       inkscape:connector-curvature="0"
       style="fill:#000000;fill-rule:nonzero" />
    <path
       d="m 801.69155,447.60022 v -6.45313 h 0.9844 v 0.92188 q 0.7187,-1.0625 2.0625,-1.0625 0.5781,0 1.0625,0.21875 0.5,0.20312 0.7344,0.54687 0.25,0.32813 0.3437,0.79688 0.062,0.3125 0.062,1.0625 v 3.96875 h -1.0937 v -3.92188 q 0,-0.67187 -0.125,-1 -0.125,-0.32812 -0.4532,-0.51562 -0.3281,-0.20313 -0.7656,-0.20313 -0.7031,0 -1.2187,0.4375 -0.5,0.4375 -0.5,1.6875 v 3.51563 z"
       id="path3965"
       inkscape:connector-curvature="0"
       style="fill:#000000;fill-rule:nonzero" />
    <path
       d="m 452.51335,433.88022 h 81.79529"
       id="path3967"
       inkscape:connector-curvature="0"
       style="fill:#000000;fill-opacity:0;fill-rule:evenodd" />
    <path
       d="m 452.51335,433.88022 h 75.79529"
       id="path3969"
       inkscape:connector-curvature="0"
       style="fill-rule:evenodd;stroke:#000000;stroke-width:1;stroke-linecap:butt;stroke-linejoin:round" />
    <path
       d="m 528.30865,435.53195 4.53809,-1.65173 -4.53809,-1.65174 z"
       id="path3971"
       inkscape:connector-curvature="0"
       style="fill:#000000;fill-rule:evenodd;stroke:#000000;stroke-width:1;stroke-linecap:butt" />
    <path
       d="m 651.50285,433.88022 h 81.7952"
       id="path3973"
       inkscape:connector-curvature="0"
       style="fill:#000000;fill-opacity:0;fill-rule:evenodd" />
    <path
       d="m 651.50285,433.88022 h 75.7952"
       id="path3975"
       inkscape:connector-curvature="0"
       style="fill-rule:evenodd;stroke:#000000;stroke-width:1;stroke-linecap:butt;stroke-linejoin:round" />
    <path
       d="m 727.29805,435.53195 4.5382,-1.65173 -4.5382,-1.65174 z"
       id="path3977"
       inkscape:connector-curvature="0"
       style="fill:#000000;fill-rule:evenodd;stroke:#000000;stroke-width:1;stroke-linecap:butt" />
    <path
       d="m 466.49635,386.02983 h 53.82672 v 42.01575 h -53.82672 z"
       id="path3979"
       inkscape:connector-curvature="0"
       style="fill:#000000;fill-opacity:0;fill-rule:evenodd" />
    <path
       d="m 476.96509,412.94982 v -13.35938 h 5.92188 q 1.78125,0 2.70312,0.35938 0.9375,0.35937 1.48438,1.28125 0.5625,0.90625 0.5625,2.01562 0,1.40625 -0.92188,2.39063 -0.92187,0.96875 -2.84375,1.23437 0.70313,0.34375 1.07813,0.67188 0.76562,0.70312 1.45312,1.76562 l 2.32813,3.64063 h -2.21875 l -1.76563,-2.78125 q -0.78125,-1.20313 -1.28125,-1.82813 -0.5,-0.64062 -0.90625,-0.89062 -0.39062,-0.26563 -0.79687,-0.35938 -0.29688,-0.0781 -0.98438,-0.0781 h -2.04687 v 5.9375 z m 1.76563,-7.45313 h 3.79687 q 1.21875,0 1.89063,-0.25 0.6875,-0.26562 1.04687,-0.8125 0.35938,-0.54687 0.35938,-1.1875 0,-0.95312 -0.6875,-1.5625 -0.6875,-0.60937 -2.1875,-0.60937 h -4.21875 z m 10.37915,7.45313 3.53125,-5.03125 -3.26563,-4.64063 h 2.04688 l 1.48437,2.26563 q 0.42188,0.64062 0.67188,1.07812 0.40625,-0.59375 0.73437,-1.0625 l 1.64063,-2.28125 h 1.95312 l -3.34375,4.54688 3.59375,5.125 h -2.01562 l -1.98438,-3 -0.51562,-0.8125 -2.54688,3.8125 z"
       id="path3981"
       inkscape:connector-curvature="0"
       style="fill:#000000;fill-rule:nonzero" />
    <path
       d="m 499.10985,419.94982 v -6.45313 h 0.98437 v 0.92188 q 0.71875,-1.0625 2.0625,-1.0625 0.57813,0 1.0625,0.21875 0.5,0.20312 0.73438,0.54687 0.25,0.32813 0.34375,0.79688 0.0625,0.3125 0.0625,1.0625 v 3.96875 h -1.09375 v -3.92188 q 0,-0.67187 -0.125,-1 -0.125,-0.32812 -0.45313,-0.51562 -0.32812,-0.20313 -0.76562,-0.20313 -0.70313,0 -1.21875,0.4375 -0.5,0.4375 -0.5,1.6875 v 3.51563 z"
       id="path3983"
       inkscape:connector-curvature="0"
       style="fill:#000000;fill-rule:nonzero" />
    <path
       d="m 665.4845,391.86447 h 67.81105 v 42.01575 H 665.4845 Z"
       id="path3985"
       inkscape:connector-curvature="0"
       style="fill:#000000;fill-opacity:0;fill-rule:evenodd" />
    <path
       d="m 675.95325,418.78447 v -13.35938 h 5.92188 q 1.78125,0 2.70312,0.35938 0.9375,0.35937 1.48438,1.28125 0.5625,0.90625 0.5625,2.01562 0,1.40625 -0.92188,2.39063 -0.92187,0.96875 -2.84375,1.23437 0.70313,0.34375 1.07813,0.67188 0.76562,0.70312 1.45312,1.76562 l 2.32813,3.64063 h -2.21875 l -1.76563,-2.78125 q -0.78125,-1.20313 -1.28125,-1.82813 -0.5,-0.64062 -0.90625,-0.89062 -0.39062,-0.26563 -0.79687,-0.35938 -0.29688,-0.0781 -0.98438,-0.0781 h -2.04687 v 5.9375 z m 1.76563,-7.45313 h 3.79687 q 1.21875,0 1.89063,-0.25 0.6875,-0.26562 1.04687,-0.8125 0.35938,-0.54687 0.35938,-1.1875 0,-0.95312 -0.6875,-1.5625 -0.6875,-0.60937 -2.1875,-0.60937 h -4.21875 z m 12.97296,7.45313 h -1.51563 v -13.35938 h 1.64063 v 4.76563 q 1.04687,-1.29688 2.65625,-1.29688 0.89062,0 1.6875,0.35938 0.79687,0.35937 1.3125,1.01562 0.51562,0.64063 0.79687,1.5625 0.29688,0.92188 0.29688,1.96875 0,2.48438 -1.23438,3.84375 -1.21875,1.35938 -2.95312,1.35938 -1.70313,0 -2.6875,-1.4375 z m -0.0156,-4.90625 q 0,1.73437 0.48438,2.51562 0.76562,1.26563 2.09375,1.26563 1.07812,0 1.85937,-0.9375 0.78125,-0.9375 0.78125,-2.78125 0,-1.89063 -0.75,-2.79688 -0.75,-0.90625 -1.82812,-0.90625 -1.0625,0 -1.85938,0.9375 -0.78125,0.9375 -0.78125,2.70313 z m 7.79761,4.90625 3.5312,-5.03125 -3.2656,-4.64063 h 2.0469 l 1.4843,2.26563 q 0.4219,0.64062 0.6719,1.07812 0.4063,-0.59375 0.7344,-1.0625 l 1.6406,-2.28125 h 1.9531 l -3.3437,4.54688 3.5937,5.125 h -2.0156 l -1.9844,-3 -0.5156,-0.8125 -2.5469,3.8125 z"
       id="path3987"
       inkscape:connector-curvature="0"
       style="fill:#000000;fill-rule:nonzero" />
    <path
       d="m 708.47385,425.78447 v -6.45313 h 0.9843 v 0.92188 q 0.7188,-1.0625 2.0625,-1.0625 0.5782,0 1.0625,0.21875 0.5,0.20312 0.7344,0.54687 0.25,0.32813 0.3438,0.79688 0.062,0.3125 0.062,1.0625 v 3.96875 h -1.0938 v -3.92188 q 0,-0.67187 -0.125,-1 -0.125,-0.32812 -0.4531,-0.51562 -0.3281,-0.20313 -0.7656,-0.20313 -0.7032,0 -1.2188,0.4375 -0.5,0.4375 -0.5,1.6875 v 3.51563 z"
       id="path3989"
       inkscape:connector-curvature="0"
       style="fill:#000000;fill-rule:nonzero" />
    <path
       d="m 850.49245,433.88022 h 137.7952"
       id="path3991"
       inkscape:connector-curvature="0"
       style="fill:#000000;fill-opacity:0;fill-rule:evenodd" />
    <path
       d="m 850.49245,433.88022 h 131.7952"
       id="path3993"
       inkscape:connector-curvature="0"
       style="fill-rule:evenodd;stroke:#000000;stroke-width:1;stroke-linecap:butt;stroke-linejoin:round" />
    <path
       d="m 982.28755,435.53195 4.5382,-1.65173 -4.5382,-1.65174 z"
       id="path3995"
       inkscape:connector-curvature="0"
       style="fill:#000000;fill-rule:evenodd;stroke:#000000;stroke-width:1;stroke-linecap:butt" />
    <path
       d="m 1036.223,433.51634 -51.36995,43.11812 -1.1969,-105.79527 z"
       id="path3997"
       inkscape:connector-curvature="0"
       style="fill:#ffffff;fill-rule:evenodd" />
    <path
       d="m 1036.223,433.51634 -51.36995,43.11812 -1.1969,-105.79527 z"
       id="path3999"
       inkscape:connector-curvature="0"
       style="fill-rule:evenodd;stroke:#000000;stroke-width:1;stroke-linecap:butt;stroke-linejoin:round" />
    <path
       d="m 988.28365,412.87234 h 53.82675 v 42.01575 h -53.82675 z"
       id="path4001"
       inkscape:connector-curvature="0"
       style="fill:#000000;fill-opacity:0;fill-rule:evenodd" />
    <path
       d="m 998.72125,439.79234 v -13.35938 h 4.60935 q 1.5469,0 2.375,0.20313 1.1406,0.25 1.9531,0.95312 1.0625,0.89063 1.5781,2.28125 0.5313,1.39063 0.5313,3.17188 0,1.51562 -0.3594,2.70312 -0.3594,1.17188 -0.9219,1.9375 -0.5468,0.76563 -1.2031,1.21875 -0.6562,0.4375 -1.5937,0.67188 -0.9375,0.21875 -2.1407,0.21875 z m 1.76555,-1.57813 h 2.8594 q 1.3125,0 2.0625,-0.23437 0.75,-0.25 1.2031,-0.70313 0.625,-0.625 0.9688,-1.6875 0.3594,-1.0625 0.3594,-2.57812 0,-2.09375 -0.6875,-3.21875 -0.6875,-1.125 -1.6719,-1.5 -0.7031,-0.28125 -2.2813,-0.28125 h -2.8125 z"
       id="path4003"
       inkscape:connector-curvature="0"
       style="fill:#000000;fill-rule:nonzero" />
    <path
       d="m 864.13015,391.86447 h 103.937 v 42.01575 h -103.937 z"
       id="path4005"
       inkscape:connector-curvature="0"
       style="fill:#000000;fill-opacity:0;fill-rule:evenodd" />
    <path
       d="m 873.09885,418.78447 5.125,-13.35938 h 1.9063 l 5.4687,13.35938 h -2.0156 l -1.5469,-4.04688 h -5.5937 l -1.4688,4.04688 z m 3.8594,-5.48438 h 4.5312 l -1.4062,-3.70312 q -0.625,-1.6875 -0.9375,-2.76563 -0.2656,1.28125 -0.7188,2.54688 z"
       id="path4007"
       inkscape:connector-curvature="0"
       style="fill:#000000;fill-rule:nonzero" />
    <path
       d="m 886.38625,425.78447 v -6.45313 h 0.9844 v 0.92188 q 0.7187,-1.0625 2.0625,-1.0625 0.5781,0 1.0625,0.21875 0.5,0.20312 0.7344,0.54687 0.25,0.32813 0.3437,0.79688 0.062,0.3125 0.062,1.0625 v 3.96875 h -1.0937 v -3.92188 q 0,-0.67187 -0.125,-1 -0.125,-0.32812 -0.4532,-0.51562 -0.3281,-0.20313 -0.7656,-0.20313 -0.7031,0 -1.2187,0.4375 -0.5,0.4375 -0.5,1.6875 v 3.51563 z"
       id="path4009"
       inkscape:connector-curvature="0"
       style="fill:#000000;fill-rule:nonzero" />
    <path
       d="m 896.85005,422.70634 q -1.3594,-1.70313 -2.2969,-4 -0.9375,-2.29688 -0.9375,-4.76563 0,-2.15625 0.7032,-4.14062 0.8281,-2.3125 2.5312,-4.59375 h 1.1719 q -1.0938,1.89062 -1.4531,2.70312 -0.5469,1.25 -0.875,2.625 -0.3907,1.70313 -0.3907,3.42188 0,4.375 2.7188,8.75 z m 3.0721,-15.375 v -1.90625 h 1.6407 v 1.90625 z m -2.0781,15.20312 0.3125,-1.39062 q 0.5,0.125 0.7813,0.125 0.5,0 0.7343,-0.32813 0.25,-0.32812 0.25,-1.67187 v -10.15625 h 1.6407 v 10.20312 q 0,1.78125 -0.4688,2.48438 -0.5937,0.90625 -1.9687,0.90625 -0.6563,0 -1.2813,-0.17188 z m 7.3167,0.17188 h -1.1875 q 2.7343,-4.375 2.7343,-8.75 0,-1.71875 -0.3906,-3.39063 -0.3125,-1.375 -0.875,-2.625 -0.3594,-0.82812 -1.4687,-2.73437 h 1.1875 q 1.7031,2.28125 2.5312,4.59375 0.6875,1.98437 0.6875,4.14062 0,2.46875 -0.9375,4.76563 -0.9375,2.29687 -2.2812,4 z m 5.5564,-3.92188 v -1.875 h 1.875 v 1.875 q 0,1.03125 -0.375,1.65625 -0.3594,0.64063 -1.1563,0.98438 l -0.4531,-0.70313 q 0.5156,-0.21875 0.7656,-0.67187 0.25,-0.4375 0.2813,-1.26563 z m 13.5228,-1.46875 0.2344,1.45313 q -0.6875,0.14062 -1.2344,0.14062 -0.8906,0 -1.3906,-0.28125 -0.4844,-0.28125 -0.6875,-0.73437 -0.2032,-0.46875 -0.2032,-1.9375 v -5.57813 h -1.2031 v -1.26562 h 1.2031 v -2.39063 l 1.625,-0.98437 v 3.375 h 1.6563 v 1.26562 h -1.6563 v 5.67188 q 0,0.6875 0.078,0.89062 0.094,0.20313 0.2812,0.32813 0.2031,0.10937 0.5781,0.10937 0.2657,0 0.7188,-0.0625 z m 7.8708,1.46875 v -1.21875 q -0.9062,1.4375 -2.7031,1.4375 -1.1562,0 -2.125,-0.64062 -0.9687,-0.64063 -1.5,-1.78125 -0.5312,-1.14063 -0.5312,-2.625 0,-1.45313 0.4843,-2.625 0.4844,-1.1875 1.4375,-1.8125 0.9688,-0.625 2.1719,-0.625 0.875,0 1.5469,0.375 0.6875,0.35937 1.1094,0.95312 v -4.79687 h 1.6406 v 13.35937 z m -5.1718,-4.82812 q 0,1.85937 0.7812,2.78125 0.7813,0.92187 1.8438,0.92187 1.0781,0 1.8281,-0.875 0.75,-0.89062 0.75,-2.6875 0,-1.98437 -0.7656,-2.90625 -0.7657,-0.9375 -1.8907,-0.9375 -1.0781,0 -1.8125,0.89063 -0.7343,0.89062 -0.7343,2.8125 z"
       id="path4011"
       inkscape:connector-curvature="0"
       style="fill:#000000;fill-rule:nonzero" />
    <path
       d="m 935.79905,425.78447 v -6.45313 h 0.9844 v 0.92188 q 0.7187,-1.0625 2.0625,-1.0625 0.5781,0 1.0625,0.21875 0.5,0.20312 0.7344,0.54687 0.25,0.32813 0.3437,0.79688 0.062,0.3125 0.062,1.0625 v 3.96875 h -1.0937 v -3.92188 q 0,-0.67187 -0.125,-1 -0.125,-0.32812 -0.4532,-0.51562 -0.3281,-0.20313 -0.7656,-0.20313 -0.7031,0 -1.2187,0.4375 -0.5,0.4375 -0.5,1.6875 v 3.51563 z"
       id="path4013"
       inkscape:connector-curvature="0"
       style="fill:#000000;fill-rule:nonzero" />
    <path
       d="m 946.26295,422.70634 q -1.3594,-1.70313 -2.2969,-4 -0.9375,-2.29688 -0.9375,-4.76563 0,-2.15625 0.7032,-4.14062 0.8281,-2.3125 2.5312,-4.59375 h 1.1719 q -1.0938,1.89062 -1.4531,2.70312 -0.5469,1.25 -0.875,2.625 -0.3907,1.70313 -0.3907,3.42188 0,4.375 2.7188,8.75 z m 3.0721,-15.375 v -1.90625 h 1.6407 v 1.90625 z m -2.0781,15.20312 0.3125,-1.39062 q 0.5,0.125 0.7813,0.125 0.5,0 0.7343,-0.32813 0.25,-0.32812 0.25,-1.67187 v -10.15625 h 1.6407 v 10.20312 q 0,1.78125 -0.4688,2.48438 -0.5937,0.90625 -1.9687,0.90625 -0.6563,0 -1.2813,-0.17188 z m 7.3167,0.17188 h -1.1875 q 2.7343,-4.375 2.7343,-8.75 0,-1.71875 -0.3906,-3.39063 -0.3125,-1.375 -0.875,-2.625 -0.3594,-0.82812 -1.4687,-2.73437 h 1.1875 q 1.7031,2.28125 2.5312,4.59375 0.6875,1.98437 0.6875,4.14062 0,2.46875 -0.9375,4.76563 -0.9375,2.29687 -2.2812,4 z"
       id="path4015"
       inkscape:connector-curvature="0"
       style="fill:#000000;fill-rule:nonzero" />
    <path
       d="m 107.57635,462.34741 v 0 c 0,-29.21457 26.23541,-52.89764 58.59842,-52.89764 v 0 c 32.36304,0 58.59842,23.68307 58.59842,52.89764 v 0 c 0,29.21455 -26.23538,52.89763 -58.59842,52.89763 v 0 c -32.36301,0 -58.59842,-23.68307 -58.59842,-52.89763 z"
       id="path4017"
       inkscape:connector-curvature="0"
       style="fill:#000000;fill-opacity:0;fill-rule:evenodd" />
    <path
       d="m 107.57635,462.34741 v 0 c 0,-29.21457 26.23541,-52.89764 58.59842,-52.89764 v 0 c 32.36304,0 58.59842,23.68307 58.59842,52.89764 v 0 c 0,29.21455 -26.23538,52.89763 -58.59842,52.89763 v 0 c -32.36301,0 -58.59842,-23.68307 -58.59842,-52.89763 z"
       id="path4019"
       inkscape:connector-curvature="0"
       style="fill-rule:evenodd;stroke:#000000;stroke-width:1;stroke-linecap:butt;stroke-linejoin:round;stroke-dasharray:4, 3" />
    <path
       d="M 15.198396,463.55476 166.97794,462.23191"
       id="path4021"
       inkscape:connector-curvature="0"
       style="fill:#000000;fill-opacity:0;fill-rule:evenodd" />
    <path
       d="M 15.198396,463.55476 160.97819,462.28421"
       id="path4023"
       inkscape:connector-curvature="0"
       style="fill-rule:evenodd;stroke:#000000;stroke-width:1;stroke-linecap:butt;stroke-linejoin:round" />
    <path
       d="m 160.99255,463.93588 4.52353,-1.69122 -4.55231,-1.61212 z"
       id="path4025"
       inkscape:connector-curvature="0"
       style="fill:#000000;fill-rule:evenodd;stroke:#000000;stroke-width:1;stroke-linecap:butt" />
    <path
       d="m 193.35327,433.23192 v 0 c 0,-2.93102 2.65808,-5.30708 5.93701,-5.30708 v 0 c 3.2789,0 5.93698,2.37606 5.93698,5.30708 v 0 c 0,2.93103 -2.65808,5.3071 -5.93698,5.3071 v 0 c -3.27893,0 -5.93701,-2.37607 -5.93701,-5.3071 z"
       id="path4027"
       inkscape:connector-curvature="0"
       style="fill:#000000;fill-opacity:0;fill-rule:evenodd" />
    <path
       d="m 193.35327,433.23192 v 0 c 0,-2.93102 2.65808,-5.30708 5.93701,-5.30708 v 0 c 3.2789,0 5.93698,2.37606 5.93698,5.30708 v 0 c 0,2.93103 -2.65808,5.3071 -5.93698,5.3071 v 0 c -3.27893,0 -5.93701,-2.37607 -5.93701,-5.3071 z"
       id="path4029"
       inkscape:connector-curvature="0"
       style="fill-rule:evenodd;stroke:#000000;stroke-width:1;stroke-linecap:butt;stroke-linejoin:round" />
    <path
       d="m 160.23779,462.34741 v 0 c 0,-2.93103 2.65808,-5.30708 5.93698,-5.30708 v 0 c 3.27893,0 5.93701,2.37605 5.93701,5.30708 v 0 c 0,2.93102 -2.65808,5.30708 -5.93701,5.30708 v 0 c -3.2789,0 -5.93698,-2.37606 -5.93698,-5.30708 z"
       id="path4031"
       inkscape:connector-curvature="0"
       style="fill:#000000;fill-opacity:0;fill-rule:evenodd" />
    <path
       d="m 160.23779,462.34741 v 0 c 0,-2.93103 2.65808,-5.30708 5.93698,-5.30708 v 0 c 3.27893,0 5.93701,2.37605 5.93701,5.30708 v 0 c 0,2.93102 -2.65808,5.30708 -5.93701,5.30708 v 0 c -3.2789,0 -5.93698,-2.37606 -5.93698,-5.30708 z"
       id="path4033"
       inkscape:connector-curvature="0"
       style="fill-rule:evenodd;stroke:#000000;stroke-width:1;stroke-linecap:butt;stroke-linejoin:round" />
    <path
       d="m 170.3729,458.59472 24.7244,-21.60629"
       id="path4035"
       inkscape:connector-curvature="0"
       style="fill:#000000;fill-opacity:0;fill-rule:evenodd" />
    <path
       d="m 170.37287,458.59472 20.20645,-17.65813"
       id="path4037"
       inkscape:connector-curvature="0"
       style="fill-rule:evenodd;stroke:#000000;stroke-width:1;stroke-linecap:butt;stroke-linejoin:round" />
    <path
       d="m 191.6662,442.18034 2.33026,-4.22995 -4.50403,1.74246 z"
       id="path4039"
       inkscape:connector-curvature="0"
       style="fill:#000000;fill-rule:evenodd;stroke:#000000;stroke-width:1;stroke-linecap:butt" />
    <path
       d="m 205.22727,433.23192 130.07877,0.66142"
       id="path4041"
       inkscape:connector-curvature="0"
       style="fill:#000000;fill-opacity:0;fill-rule:evenodd" />
    <path
       d="m 205.22727,433.23192 124.07883,0.63091"
       id="path4043"
       inkscape:connector-curvature="0"
       style="fill-rule:evenodd;stroke:#000000;stroke-width:1;stroke-linecap:butt;stroke-linejoin:round" />
    <path
       d="m 329.29765,435.51454 4.54645,-1.62863 -4.5296,-1.67479 z"
       id="path4045"
       inkscape:connector-curvature="0"
       style="fill:#000000;fill-rule:evenodd;stroke:#000000;stroke-width:1;stroke-linecap:butt" />
    <path
       d="m 136.99762,467.65449 h 53.82678 v 42.01575 h -53.82678 z"
       id="path4047"
       inkscape:connector-curvature="0"
       style="fill:#000000;fill-opacity:0;fill-rule:evenodd" />
    <path
       d="m 148.4195,485.6145 v -5.89063 h -2.20313 v -0.78125 h 5.29688 v 0.78125 h -2.21875 v 5.89063 z m 3.698,-2.14063 0.82812,-0.0781 q 0.0625,0.5 0.28125,0.82812 0.21875,0.3125 0.67188,0.51563 0.45312,0.20312 1.01562,0.20312 0.51563,0 0.89063,-0.15625 0.39062,-0.15625 0.57812,-0.40625 0.1875,-0.26562 0.1875,-0.57812 0,-0.3125 -0.1875,-0.54688 -0.17187,-0.23437 -0.59375,-0.39062 -0.26562,-0.10938 -1.1875,-0.32813 -0.92187,-0.21875 -1.28125,-0.42187 -0.48437,-0.25 -0.71875,-0.60938 -0.23437,-0.375 -0.23437,-0.84375 0,-0.5 0.28125,-0.9375 0.29687,-0.4375 0.84375,-0.67187 0.54687,-0.23438 1.23437,-0.23438 0.73438,0 1.29688,0.25 0.57812,0.23438 0.875,0.70313 0.3125,0.45312 0.32812,1.04687 l -0.84375,0.0625 q -0.0625,-0.625 -0.46875,-0.95312 -0.39062,-0.32813 -1.15625,-0.32813 -0.79687,0 -1.17187,0.29688 -0.35938,0.29687 -0.35938,0.70312 0,0.35938 0.25,0.59375 0.26563,0.23438 1.32813,0.48438 1.07812,0.23437 1.48437,0.42187 0.57813,0.26563 0.85938,0.6875 0.28125,0.40625 0.28125,0.9375 0,0.53125 -0.3125,1.01563 -0.29688,0.46875 -0.875,0.73437 -0.5625,0.24999 -1.28125,0.24999 -0.90625,0 -1.51563,-0.26561 -0.60937,-0.26563 -0.96875,-0.78125 -0.34375,-0.53125 -0.35937,-1.20313 z"
       id="path4049"
       inkscape:connector-curvature="0"
       style="fill:#000000;fill-rule:nonzero" />
    <path
       d="m 146.71637,496.8145 v -6.67187 h 2.29687 q 0.78125,0 1.1875,0.0937 0.57813,0.125 0.98438,0.46875 0.53125,0.45312 0.78125,1.15625 0.26562,0.6875 0.26562,1.57812 0,0.76563 -0.17187,1.35938 -0.17188,0.57812 -0.45313,0.96875 -0.28125,0.375 -0.60937,0.59375 -0.32813,0.21875 -0.79688,0.34375 -0.46875,0.10937 -1.07812,0.10937 z m 0.89062,-0.78125 h 1.42188 q 0.65625,0 1.03125,-0.125 0.375,-0.125 0.60937,-0.34375 0.3125,-0.32812 0.48438,-0.84375 0.17187,-0.53125 0.17187,-1.29687 0,-1.04688 -0.34375,-1.60938 -0.34375,-0.5625 -0.82812,-0.75 -0.35938,-0.14062 -1.15625,-0.14062 h -1.39063 z m 9.04899,-0.78125 0.84375,0.10938 q -0.1875,0.75 -0.73438,1.15625 -0.54687,0.40625 -1.39062,0.40625 -1.0625,0 -1.6875,-0.65625 -0.60938,-0.65625 -0.60938,-1.82813 0,-1.21875 0.625,-1.89062 0.625,-0.6875 1.625,-0.6875 0.98438,0 1.59375,0.67187 0.60938,0.65625 0.60938,1.85938 0,0.0625 0,0.21875 h -3.60938 q 0.0469,0.79687 0.45313,1.21875 0.40625,0.42187 1.01562,0.42187 0.45313,0 0.76563,-0.23437 0.3125,-0.23438 0.5,-0.76563 z m -2.6875,-1.32812 h 2.70312 q -0.0625,-0.60938 -0.3125,-0.90625 -0.39062,-0.46875 -1.01562,-0.46875 -0.5625,0 -0.95313,0.375 -0.375,0.375 -0.42187,1 z m 4.56286,2.89062 v -4.84375 h 0.73438 v 0.6875 q 0.23437,-0.35937 0.60937,-0.57812 0.375,-0.21875 0.85938,-0.21875 0.54687,0 0.89062,0.23437 0.34375,0.21875 0.48438,0.625 0.5625,-0.85937 1.48437,-0.85937 0.71875,0 1.10938,0.40625 0.39062,0.39062 0.39062,1.21875 v 3.32812 h -0.8125 v -3.04687 q 0,-0.48438 -0.0937,-0.70313 -0.0781,-0.21875 -0.28125,-0.34375 -0.20312,-0.14062 -0.48437,-0.14062 -0.51563,0 -0.85938,0.34375 -0.32812,0.32812 -0.32812,1.07812 v 2.8125 h -0.82813 v -3.14062 q 0,-0.54688 -0.20312,-0.8125 -0.1875,-0.28125 -0.65625,-0.28125 -0.34375,0 -0.64063,0.1875 -0.28125,0.17187 -0.42187,0.53125 -0.125,0.34375 -0.125,1 v 2.51562 z m 10.94229,0 v -0.70312 q -0.5625,0.8125 -1.53125,0.8125 -0.42187,0 -0.79687,-0.15625 -0.375,-0.17188 -0.5625,-0.42188 -0.17188,-0.25 -0.25,-0.60937 -0.0469,-0.23438 -0.0469,-0.76563 v -3 h 0.82813 v 2.6875 q 0,0.64063 0.0469,0.875 0.0781,0.3125 0.32813,0.5 0.25,0.1875 0.60937,0.1875 0.375,0 0.70313,-0.1875 0.32812,-0.1875 0.45312,-0.51562 0.14063,-0.32813 0.14063,-0.95313 v -2.59375 h 0.8125 v 4.84375 z m 1.46912,0 1.76562,-2.51562 -1.625,-2.32813 h 1.01563 l 0.75,1.14063 q 0.20312,0.32812 0.34375,0.54687 0.1875,-0.3125 0.35937,-0.53125 l 0.8125,-1.15625 h 0.98438 l -1.67188,2.28125 1.79688,2.5625 h -1 l -1,-1.5 -0.26563,-0.40625 -1.26562,1.90625 z"
       id="path4051"
       inkscape:connector-curvature="0"
       style="fill:#000000;fill-rule:nonzero" />
    <path
       d="m 190.82587,436.98782 h 31.52759 v 30.70866 h -31.52759 z"
       id="path4053"
       inkscape:connector-curvature="0"
       style="fill:#000000;fill-opacity:0;fill-rule:evenodd" />
    <path
       d="m 200.66962,454.94783 v -0.9375 h 0.9375 v 0.9375 z m 2.59167,0 v -0.9375 h 0.9375 v 0.9375 z m 2.59165,0 v -0.9375 h 0.9375 v 0.9375 z"
       id="path4055"
       inkscape:connector-curvature="0"
       style="fill:#000000;fill-rule:nonzero" />
    <path
       d="m 195.09605,476.09807 v 0 c 0,-2.93103 2.65808,-5.30708 5.93701,-5.30708 v 0 c 3.27893,0 5.93701,2.37605 5.93701,5.30708 v 0 c 0,2.93101 -2.65808,5.30708 -5.93701,5.30708 v 0 c -3.27893,0 -5.93701,-2.37607 -5.93701,-5.30708 z"
       id="path4057"
       inkscape:connector-curvature="0"
       style="fill:#000000;fill-opacity:0;fill-rule:evenodd" />
    <path
       d="m 195.09605,476.09807 v 0 c 0,-2.93103 2.65808,-5.30708 5.93701,-5.30708 v 0 c 3.27893,0 5.93701,2.37605 5.93701,5.30708 v 0 c 0,2.93101 -2.65808,5.30708 -5.93701,5.30708 v 0 c -3.27893,0 -5.93701,-2.37607 -5.93701,-5.30708 z"
       id="path4059"
       inkscape:connector-curvature="0"
       style="fill-rule:evenodd;stroke:#000000;stroke-width:1;stroke-linecap:butt;stroke-linejoin:round" />
    <path
       d="m 206.97005,476.09807 79.40158,0.53543"
       id="path4061"
       inkscape:connector-curvature="0"
       style="fill:#000000;fill-opacity:0;fill-rule:evenodd" />
    <path
       d="m 206.97005,476.09807 73.4017,0.49498"
       id="path4063"
       inkscape:connector-curvature="0"
       style="fill-rule:evenodd;stroke:#000000;stroke-width:1;stroke-linecap:butt;stroke-linejoin:round" />
    <path
       d="m 280.36065,478.24473 4.54913,-1.62109 -4.52685,-1.6823 z"
       id="path4065"
       inkscape:connector-curvature="0"
       style="fill:#000000;fill-rule:evenodd;stroke:#000000;stroke-width:1;stroke-linecap:butt" />
    <path
       d="m 188.59735,496.59938 v 0 c 0,-2.93103 2.65808,-5.3071 5.93701,-5.3071 v 0 c 3.27893,0 5.93701,2.37607 5.93701,5.3071 v 0 c 0,2.93103 -2.65808,5.3071 -5.93701,5.3071 v 0 c -3.27893,0 -5.93701,-2.37607 -5.93701,-5.3071 z"
       id="path4067"
       inkscape:connector-curvature="0"
       style="fill:#000000;fill-opacity:0;fill-rule:evenodd" />
    <path
       d="m 188.59735,496.59938 v 0 c 0,-2.93103 2.65808,-5.3071 5.93701,-5.3071 v 0 c 3.27893,0 5.93701,2.37607 5.93701,5.3071 v 0 c 0,2.93103 -2.65808,5.3071 -5.93701,5.3071 v 0 c -3.27893,0 -5.93701,-2.37607 -5.93701,-5.3071 z"
       id="path4069"
       inkscape:connector-curvature="0"
       style="fill-rule:evenodd;stroke:#000000;stroke-width:1;stroke-linecap:butt;stroke-linejoin:round" />
    <path
       d="m 200.47138,496.59938 79.40155,0.53543"
       id="path4071"
       inkscape:connector-curvature="0"
       style="fill:#000000;fill-opacity:0;fill-rule:evenodd" />
    <path
       d="m 200.47138,496.59938 73.40167,0.49496"
       id="path4073"
       inkscape:connector-curvature="0"
       style="fill-rule:evenodd;stroke:#000000;stroke-width:1;stroke-linecap:butt;stroke-linejoin:round" />
    <path
       d="m 273.86195,498.74605 4.54913,-1.62109 -4.52685,-1.68232 z"
       id="path4075"
       inkscape:connector-curvature="0"
       style="fill:#000000;fill-rule:evenodd;stroke:#000000;stroke-width:1;stroke-linecap:butt" />
    <path
       d="m 282.02051,476.6335 h 79.40161 v 30.70865 h -79.40161 z"
       id="path4077"
       inkscape:connector-curvature="0"
       style="fill:#000000;fill-opacity:0;fill-rule:evenodd" />
    <path
       d="m 291.47365,491.34349 q 0,-1.67188 0.89063,-2.60938 0.89062,-0.9375 2.29687,-0.9375 0.9375,0 1.67188,0.45313 0.75,0.4375 1.14062,1.23437 0.39063,0.78125 0.39063,1.78125 0,1.01563 -0.42188,1.82813 -0.40625,0.79687 -1.15625,1.20312 -0.75,0.40625 -1.625,0.40625 -0.9375,0 -1.6875,-0.45312 -0.73437,-0.45313 -1.125,-1.23438 -0.375,-0.79687 -0.375,-1.67187 z m 0.90625,0.0156 q 0,1.20313 0.64063,1.90625 0.65625,0.6875 1.64062,0.6875 1,0 1.64063,-0.70312 0.64062,-0.70313 0.64062,-1.98438 0,-0.82812 -0.28125,-1.42187 -0.26562,-0.60938 -0.79687,-0.9375 -0.53125,-0.34375 -1.1875,-0.34375 -0.9375,0 -1.625,0.64062 -0.67188,0.64063 -0.67188,2.15625 z m 8.30261,2.5 0.10938,0.71875 q -0.34375,0.0781 -0.60938,0.0781 -0.45312,0 -0.70312,-0.14063 -0.23438,-0.14062 -0.34375,-0.35937 -0.0937,-0.23438 -0.0937,-0.98438 v -2.78125 h -0.60938 v -0.64062 h 0.60938 v -1.1875 l 0.8125,-0.5 v 1.6875 h 0.82812 v 0.64062 h -0.82812 v 2.82813 q 0,0.35937 0.0469,0.46875 0.0469,0.0937 0.14063,0.15625 0.0937,0.0469 0.28125,0.0469 0.14062,0 0.35937,-0.0312 z m 0.7948,0.73438 v -6.67188 h 0.82813 v 2.39063 q 0.57812,-0.67188 1.45312,-0.67188 0.53125,0 0.92188,0.21875 0.40625,0.21875 0.57812,0.59375 0.17188,0.35938 0.17188,1.07813 v 3.0625 h -0.82813 v -3.0625 q 0,-0.625 -0.26562,-0.89063 -0.26563,-0.28125 -0.75,-0.28125 -0.375,0 -0.70313,0.1875 -0.3125,0.1875 -0.45312,0.51563 -0.125,0.3125 -0.125,0.89062 v 2.64063 z m 8.50037,-1.5625 0.84375,0.10937 q -0.1875,0.75 -0.73438,1.15625 -0.54687,0.40625 -1.39062,0.40625 -1.0625,0 -1.6875,-0.65625 -0.60938,-0.65625 -0.60938,-1.82812 0,-1.21875 0.625,-1.89063 0.625,-0.6875 1.625,-0.6875 0.98438,0 1.59375,0.67188 0.60938,0.65625 0.60938,1.85937 0,0.0625 0,0.21875 h -3.60938 q 0.0469,0.79688 0.45313,1.21875 0.40625,0.42188 1.01562,0.42188 0.45313,0 0.76563,-0.23438 0.3125,-0.23437 0.5,-0.76562 z m -2.6875,-1.32813 h 2.70312 q -0.0625,-0.60937 -0.3125,-0.90625 -0.39062,-0.46875 -1.01562,-0.46875 -0.5625,0 -0.95313,0.375 -0.375,0.375 -0.42187,1 z m 4.56286,2.89063 v -4.84375 h 0.73438 v 0.73437 q 0.28125,-0.51562 0.51562,-0.67187 0.25,-0.17188 0.53125,-0.17188 0.42188,0 0.84375,0.26563 l -0.28125,0.76562 q -0.29687,-0.17187 -0.60937,-0.17187 -0.26563,0 -0.48438,0.15625 -0.20312,0.15625 -0.29687,0.45312 -0.14063,0.4375 -0.14063,0.95313 v 2.53125 z m 5.823,0 v -6.67188 h 4.82813 v 0.78125 h -3.9375 v 2.04688 h 3.6875 v 0.78125 h -3.6875 v 2.28125 h 4.09375 v 0.78125 z m 5.9093,-2.14063 0.82813,-0.0781 q 0.0625,0.5 0.28125,0.82812 0.21875,0.3125 0.67187,0.51563 0.45313,0.20312 1.01563,0.20312 0.51562,0 0.89062,-0.15625 0.39063,-0.15625 0.57813,-0.40625 0.1875,-0.26562 0.1875,-0.57812 0,-0.3125 -0.1875,-0.54688 -0.17188,-0.23437 -0.59375,-0.39062 -0.26563,-0.10938 -1.1875,-0.32813 -0.92188,-0.21875 -1.28125,-0.42187 -0.48438,-0.25 -0.71875,-0.60938 -0.23438,-0.375 -0.23438,-0.84375 0,-0.5 0.28125,-0.9375 0.29688,-0.4375 0.84375,-0.67187 0.54688,-0.23438 1.23438,-0.23438 0.73437,0 1.29687,0.25 0.57813,0.23438 0.875,0.70313 0.3125,0.45312 0.32813,1.04687 l -0.84375,0.0625 q -0.0625,-0.625 -0.46875,-0.95312 -0.39063,-0.32813 -1.15625,-0.32813 -0.79688,0 -1.17188,0.29688 -0.35937,0.29687 -0.35937,0.70312 0,0.35938 0.25,0.59375 0.26562,0.23438 1.32812,0.48438 1.07813,0.23437 1.48438,0.42187 0.57812,0.26563 0.85937,0.6875 0.28125,0.40625 0.28125,0.9375 0,0.53125 -0.3125,1.01563 -0.29687,0.46875 -0.875,0.73437 -0.5625,0.25 -1.28125,0.25 -0.90625,0 -1.51562,-0.26562 -0.60938,-0.26563 -0.96875,-0.78125 -0.34375,-0.53125 -0.35938,-1.20313 z m 6.08112,0.70313 0.8125,-0.14063 q 0.0781,0.5 0.39062,0.76563 0.3125,0.25 0.85938,0.25 0.57812,0 0.84375,-0.23438 0.28125,-0.23437 0.28125,-0.53125 0,-0.28125 -0.25,-0.4375 -0.17188,-0.10937 -0.84375,-0.28125 -0.89063,-0.23437 -1.25,-0.39062 -0.34375,-0.17188 -0.53125,-0.46875 -0.17188,-0.29688 -0.17188,-0.64063 0,-0.32812 0.14063,-0.59375 0.15625,-0.28125 0.40625,-0.46875 0.20312,-0.14062 0.53125,-0.23437 0.32812,-0.10938 0.70312,-0.10938 0.57813,0 1,0.17188 0.4375,0.15625 0.64063,0.4375 0.20312,0.28125 0.28125,0.75 l -0.79688,0.10937 q -0.0625,-0.375 -0.32812,-0.57812 -0.26563,-0.20313 -0.73438,-0.20313 -0.5625,0 -0.8125,0.1875 -0.23437,0.17188 -0.23437,0.4375 0,0.15625 0.0937,0.28125 0.10937,0.125 0.3125,0.21875 0.125,0.0469 0.73437,0.20313 0.85938,0.23437 1.20313,0.39062 0.34375,0.14063 0.53125,0.42188 0.20312,0.28125 0.20312,0.70312 0,0.40625 -0.23437,0.78125 -0.23438,0.35938 -0.6875,0.5625 -0.45313,0.1875 -1.01563,0.1875 -0.95312,0 -1.45312,-0.39062 -0.48438,-0.39063 -0.625,-1.15625 z"
       id="path4079"
       inkscape:connector-curvature="0"
       style="fill:#000000;fill-rule:nonzero" />
    <path
       d="m 34.191846,420.21617 h 53.82678 v 42.01575 h -53.82678 z"
       id="path4081"
       inkscape:connector-curvature="0"
       style="fill:#000000;fill-opacity:0;fill-rule:evenodd" />
    <path
       d="m 48.004346,445.66742 0.23437,1.45312 q -0.6875,0.14063 -1.23437,0.14063 -0.89063,0 -1.39063,-0.28125 -0.48437,-0.28125 -0.6875,-0.73438 -0.20312,-0.46875 -0.20312,-1.9375 v -5.57812 h -1.20313 v -1.26563 h 1.20313 v -2.39062 l 1.625,-0.98438 v 3.375 h 1.65625 v 1.26563 h -1.65625 v 5.67187 q 0,0.6875 0.0781,0.89063 0.0937,0.20312 0.28125,0.32812 0.20313,0.10938 0.57813,0.10938 0.26562,0 0.71875,-0.0625 z m 4.73019,5.39062 q -1.35937,-1.70312 -2.29687,-4 -0.9375,-2.29687 -0.9375,-4.76562 0,-2.15625 0.70312,-4.14063 0.82813,-2.3125 2.53125,-4.59375 h 1.17188 q -1.09375,1.89063 -1.45313,2.70313 -0.54687,1.25 -0.875,2.625 -0.39062,1.70312 -0.39062,3.42187 0,4.375 2.71875,8.75 z m 3.08768,-15.39062 v -1.89063 h 1.64063 v 1.89063 z m 0,11.46875 v -9.67188 h 1.64063 v 9.67188 z m 5.22293,3.92187 h -1.1875 q 2.73438,-4.375 2.73438,-8.75 0,-1.71875 -0.39063,-3.39062 -0.3125,-1.375 -0.875,-2.625 -0.35937,-0.82813 -1.46875,-2.73438 h 1.1875 q 1.70313,2.28125 2.53125,4.59375 0.6875,1.98438 0.6875,4.14063 0,2.46875 -0.9375,4.76562 -0.9375,2.29688 -2.28125,4 z"
       id="path4083"
       inkscape:connector-curvature="0"
       style="fill:#000000;fill-rule:nonzero" />
    <path
       d="m 1118.0146,399.72798 h 117.1969 v 66.99213 h -117.1969 z"
       id="path4085"
       inkscape:connector-curvature="0"
       style="fill:#000000;fill-opacity:0;fill-rule:evenodd" />
    <path
       d="m 1118.0146,399.72798 h 117.1969 v 66.99213 h -117.1969 z"
       id="path4087"
       inkscape:connector-curvature="0"
       style="fill-rule:evenodd;stroke:#000000;stroke-width:1;stroke-linecap:butt;stroke-linejoin:round" />
    <path
       d="m 1131.9924,439.94404 v -13.35938 h 5.0156 q 1.5313,0 2.4532,0.40625 0.9218,0.40625 1.4375,1.25 0.5312,0.84375 0.5312,1.76563 0,0.85937 -0.4687,1.625 -0.4532,0.75 -1.3907,1.20312 1.2032,0.35938 1.8594,1.21875 0.6563,0.85938 0.6563,2.01563 0,0.9375 -0.4063,1.75 -0.3906,0.79687 -0.9844,1.23437 -0.5781,0.4375 -1.4531,0.67188 -0.875,0.21875 -2.1562,0.21875 z m 1.7813,-7.75 h 2.875 q 1.1875,0 1.6875,-0.14063 0.6718,-0.20312 1.0156,-0.67187 0.3437,-0.46875 0.3437,-1.17188 0,-0.65625 -0.3281,-1.15625 -0.3125,-0.51562 -0.9062,-0.70312 -0.5938,-0.1875 -2.0313,-0.1875 h -2.6562 z m 0,6.17187 h 3.3125 q 0.8593,0 1.2031,-0.0625 0.6094,-0.10937 1.0156,-0.35937 0.4219,-0.26563 0.6875,-0.75 0.2656,-0.48438 0.2656,-1.125 0,-0.75 -0.3906,-1.29688 -0.375,-0.54687 -1.0625,-0.76562 -0.6719,-0.23438 -1.9531,-0.23438 h -3.0781 z m 16.8653,1.57813 v -1.42188 q -1.125,1.64063 -3.0625,1.64063 -0.8594,0 -1.6094,-0.32813 -0.7343,-0.32812 -1.0937,-0.82812 -0.3594,-0.5 -0.5,-1.21875 -0.1094,-0.46875 -0.1094,-1.53125 v -5.98438 h 1.6406 v 5.35938 q 0,1.28125 0.1094,1.73437 0.1563,0.64063 0.6563,1.01563 0.5,0.375 1.2343,0.375 0.7344,0 1.375,-0.375 0.6563,-0.39063 0.9219,-1.03125 0.2656,-0.65625 0.2656,-1.89063 v -5.1875 h 1.6407 v 9.67188 z m 4.4382,0 v -8.40625 h -1.4531 v -1.26563 h 1.4531 v -1.03125 q 0,-0.96875 0.1719,-1.45312 0.2344,-0.64063 0.8281,-1.03125 0.5938,-0.39063 1.6719,-0.39063 0.6875,0 1.5313,0.15625 l -0.25,1.4375 q -0.5,-0.0937 -0.9532,-0.0937 -0.75,0 -1.0625,0.32813 -0.3125,0.3125 -0.3125,1.1875 v 0.89062 h 1.8907 v 1.26563 h -1.8907 v 8.40625 z m 4.8461,0 v -8.40625 h -1.4531 v -1.26563 h 1.4531 v -1.03125 q 0,-0.96875 0.1719,-1.45312 0.2344,-0.64063 0.8281,-1.03125 0.5938,-0.39063 1.6719,-0.39063 0.6875,0 1.5312,0.15625 l -0.25,1.4375 q -0.5,-0.0937 -0.9531,-0.0937 -0.75,0 -1.0625,0.32813 -0.3125,0.3125 -0.3125,1.1875 v 0.89062 h 1.8906 v 1.26563 h -1.8906 v 8.40625 z m 11.4177,-3.10938 1.6875,0.20313 q -0.4062,1.48437 -1.4843,2.3125 -1.0782,0.8125 -2.7657,0.8125 -2.125,0 -3.375,-1.29688 -1.2343,-1.3125 -1.2343,-3.67187 0,-2.45313 1.25,-3.79688 1.2656,-1.34375 3.2656,-1.34375 1.9375,0 3.1562,1.32813 1.2344,1.3125 1.2344,3.70312 0,0.15625 0,0.4375 h -7.2187 q 0.094,1.59375 0.9062,2.45313 0.8125,0.84375 2.0156,0.84375 0.9063,0 1.5469,-0.46875 0.6406,-0.48438 1.0156,-1.51563 z m -5.3906,-2.65625 h 5.4063 q -0.1094,-1.21875 -0.625,-1.82812 -0.7813,-0.95313 -2.0313,-0.95313 -1.125,0 -1.9062,0.76563 -0.7657,0.75 -0.8438,2.01562 z m 9.1257,5.76563 v -9.67188 h 1.4688 v 1.46875 q 0.5625,-1.03125 1.0312,-1.35937 0.4844,-0.32813 1.0625,-0.32813 0.8282,0 1.6875,0.53125 l -0.5625,1.51563 q -0.6093,-0.35938 -1.2031,-0.35938 -0.5469,0 -0.9687,0.32813 -0.4219,0.32812 -0.6094,0.89062 -0.2813,0.875 -0.2813,1.92188 v 5.0625 z m 11.6148,0 v -13.35938 h 5.0469 q 1.3281,0 2.0312,0.125 0.9688,0.17188 1.6406,0.64063 0.6719,0.45312 1.0782,1.28125 0.4062,0.82812 0.4062,1.82812 0,1.70313 -1.0937,2.89063 -1.0782,1.17187 -3.9219,1.17187 h -3.4219 v 5.42188 z m 1.7656,-7 h 3.4531 q 1.7188,0 2.4375,-0.64063 0.7188,-0.64062 0.7188,-1.79687 0,-0.84375 -0.4219,-1.4375 -0.4219,-0.59375 -1.125,-0.78125 -0.4375,-0.125 -1.6406,-0.125 h -3.4219 z m 9.8654,2.15625 q 0,-2.6875 1.4843,-3.96875 1.25,-1.07813 3.0469,-1.07813 2,0 3.2656,1.3125 1.2657,1.29688 1.2657,3.60938 0,1.85937 -0.5625,2.9375 -0.5625,1.0625 -1.6407,1.65625 -1.0625,0.59375 -2.3281,0.59375 -2.0312,0 -3.2812,-1.29688 -1.25,-1.3125 -1.25,-3.76562 z m 1.6875,0 q 0,1.85937 0.7968,2.79687 0.8125,0.92188 2.0469,0.92188 1.2188,0 2.0313,-0.92188 0.8125,-0.9375 0.8125,-2.84375 0,-1.79687 -0.8125,-2.71875 -0.8125,-0.92187 -2.0313,-0.92187 -1.2344,0 -2.0469,0.92187 -0.7968,0.90625 -0.7968,2.76563 z m 8.6882,0 q 0,-2.6875 1.4844,-3.96875 1.25,-1.07813 3.0468,-1.07813 2,0 3.2657,1.3125 1.2656,1.29688 1.2656,3.60938 0,1.85937 -0.5625,2.9375 -0.5625,1.0625 -1.6406,1.65625 -1.0625,0.59375 -2.3282,0.59375 -2.0312,0 -3.2812,-1.29688 -1.25,-1.3125 -1.25,-3.76562 z m 1.6875,0 q 0,1.85937 0.7969,2.79687 0.8125,0.92188 2.0468,0.92188 1.2188,0 2.0313,-0.92188 0.8125,-0.9375 0.8125,-2.84375 0,-1.79687 -0.8125,-2.71875 -0.8125,-0.92187 -2.0313,-0.92187 -1.2343,0 -2.0468,0.92187 -0.7969,0.90625 -0.7969,2.76563 z m 9.2507,4.84375 v -13.35938 h 1.6407 v 13.35938 z"
       id="path4089"
       inkscape:connector-curvature="0"
       style="fill:#000000;fill-rule:nonzero" />
    <path
       d="m 1038.3925,433.22404 h 81.7953"
       id="path4091"
       inkscape:connector-curvature="0"
       style="fill:#000000;fill-opacity:0;fill-rule:evenodd" />
    <path
       d="m 1038.3925,433.22404 h 75.7953"
       id="path4093"
       inkscape:connector-curvature="0"
       style="fill-rule:evenodd;stroke:#000000;stroke-width:1;stroke-linecap:butt;stroke-linejoin:round" />
    <path
       d="m 1114.1878,434.87578 4.5381,-1.65173 -4.5381,-1.65174 z"
       id="path4095"
       inkscape:connector-curvature="0"
       style="fill:#000000;fill-rule:evenodd;stroke:#000000;stroke-width:1;stroke-linecap:butt" />
  </g>
</svg>
